<?xml version="1.0" standalone="no"?><!DOCTYPE svg PUBLIC "-//W3C//DTD SVG 1.1//EN" "http://www.w3.org/Graphics/SVG/1.1/DTD/svg11.dtd"><svg t="1687161579183" class="icon" viewBox="0 0 1024 1024" version="1.1" xmlns="http://www.w3.org/2000/svg" p-id="2740" width="18" height="18" xmlns:xlink="http://www.w3.org/1999/xlink"><path d="M512 255.78c-194.98 0-360.39 106.95-421.96 256 61.57 149.05 226.98 256 421.96 256s360.39-106.95 421.96-256c-61.57-149.05-226.98-256-421.96-256z m0 448c-106.04 0-192-85.96-192-192s85.96-192 192-192 192 85.96 192 192-85.96 192-192 192z" fill="#8a8a8a" p-id="2741"></path><path d="M512 511.78m-128 0a128 128 0 1 0 256 0 128 128 0 1 0-256 0Z" fill="#8a8a8a" p-id="2742"></path></svg>